<svg width="28" height="28" viewBox="0 0 28 28" xmlns="http://www.w3.org/2000/svg"><path opacity="0.2" d="M19.25 3.5H8.75C7.35761 3.5 6.02226 4.05312 5.03769 5.03769C4.05312 6.02226 3.5 7.35761 3.5 8.75V19.25C3.5 20.6424 4.05312 21.9777 5.03769 22.9623C6.02226 23.9469 7.35761 24.5 8.75 24.5H19.25C20.6424 24.5 21.9777 23.9469 22.9623 22.9623C23.9469 21.9777 24.5 20.6424 24.5 19.25V8.75C24.5 7.35761 23.9469 6.02226 22.9623 5.03769C21.9777 4.05312 20.6424 3.5 19.25 3.5ZM14 18.375C13.1347 18.375 12.2888 18.1184 11.5694 17.6377C10.8499 17.1569 10.2892 16.4737 9.95803 15.6742C9.62689 14.8748 9.54025 13.9951 9.70906 13.1465C9.87787 12.2978 10.2946 11.5183 10.9064 10.9064C11.5183 10.2946 12.2978 9.87787 13.1465 9.70906C13.9951 9.54025 14.8748 9.62689 15.6742 9.95803C16.4737 10.2892 17.1569 10.8499 17.6377 11.5694C18.1184 12.2888 18.375 13.1347 18.375 14C18.375 15.1603 17.9141 16.2731 17.0936 17.0936C16.2731 17.9141 15.1603 18.375 14 18.375Z" fill="currentColor"/><path d="M19.25 2.625H8.75C7.12608 2.62674 5.56917 3.27261 4.42089 4.42089C3.27261 5.56917 2.62674 7.12608 2.625 8.75V19.25C2.62674 20.8739 3.27261 22.4308 4.42089 23.5791C5.56917 24.7274 7.12608 25.3733 8.75 25.375H19.25C20.8739 25.3733 22.4308 24.7274 23.5791 23.5791C24.7274 22.4308 25.3733 20.8739 25.375 19.25V8.75C25.3733 7.12608 24.7274 5.56917 23.5791 4.42089C22.4308 3.27261 20.8739 2.62674 19.25 2.625ZM23.625 19.25C23.625 20.4103 23.1641 21.5231 22.3436 22.3436C21.5231 23.1641 20.4103 23.625 19.25 23.625H8.75C7.58968 23.625 6.47688 23.1641 5.65641 22.3436C4.83594 21.5231 4.375 20.4103 4.375 19.25V8.75C4.375 7.58968 4.83594 6.47688 5.65641 5.65641C6.47688 4.83594 7.58968 4.375 8.75 4.375H19.25C20.4103 4.375 21.5231 4.83594 22.3436 5.65641C23.1641 6.47688 23.625 7.58968 23.625 8.75V19.25ZM14 8.75C12.9616 8.75 11.9466 9.05791 11.0833 9.63478C10.2199 10.2117 9.54699 11.0316 9.14963 11.9909C8.75227 12.9502 8.64831 14.0058 8.85088 15.0242C9.05345 16.0426 9.55346 16.9781 10.2877 17.7123C11.0219 18.4465 11.9574 18.9466 12.9758 19.1491C13.9942 19.3517 15.0498 19.2477 16.0091 18.8504C16.9684 18.453 17.7883 17.7801 18.3652 16.9167C18.9421 16.0534 19.25 15.0384 19.25 14C19.2486 12.6081 18.695 11.2735 17.7107 10.2893C16.7265 9.30504 15.3919 8.75145 14 8.75ZM14 17.5C13.3078 17.5 12.6311 17.2947 12.0555 16.9101C11.4799 16.5256 11.0313 15.9789 10.7664 15.3394C10.5015 14.6999 10.4322 13.9961 10.5673 13.3172C10.7023 12.6383 11.0356 12.0146 11.5251 11.5251C12.0146 11.0356 12.6383 10.7023 13.3172 10.5673C13.9961 10.4322 14.6999 10.5015 15.3394 10.7664C15.9789 11.0313 16.5256 11.4799 16.9101 12.0555C17.2947 12.6311 17.5 13.3078 17.5 14C17.5 14.9283 17.1313 15.8185 16.4749 16.4749C15.8185 17.1313 14.9283 17.5 14 17.5ZM21 8.3125C21 8.57209 20.923 8.82585 20.7788 9.04169C20.6346 9.25753 20.4296 9.42575 20.1898 9.52509C19.9499 9.62443 19.686 9.65042 19.4314 9.59978C19.1768 9.54914 18.943 9.42413 18.7594 9.24058C18.5759 9.05702 18.4509 8.82316 18.4002 8.56856C18.3496 8.31396 18.3756 8.05006 18.4749 7.81023C18.5742 7.5704 18.7425 7.36542 18.9583 7.2212C19.1742 7.07698 19.4279 7 19.6875 7C20.0356 7 20.3694 7.13828 20.6156 7.38442C20.8617 7.63056 21 7.9644 21 8.3125Z" fill="currentColor"/></svg>