<svg width="28" height="28" viewBox="0 0 28 28" xmlns="http://www.w3.org/2000/svg"><path opacity="0.2" d="M26.25 7.87483L22.75 11.3748C22.2841 18.6855 16.1788 24.4998 8.75 24.4998C5.25 24.4998 4.375 23.1873 4.375 23.1873C4.375 23.1873 7.875 21.8748 9.625 19.2498C9.625 19.2498 3.59297 15.7498 4.46031 6.12483C4.46031 6.12483 8.79812 10.4998 14 11.3748V9.62484C14 7.21859 15.9688 5.2203 18.375 5.24983C19.2242 5.2597 20.0529 5.51202 20.7634 5.97708C21.474 6.44214 22.0369 7.10058 22.3858 7.87483H26.25Z" fill="currentColor"/><path d="M27.0583 7.54028C26.9921 7.38038 26.88 7.2437 26.7361 7.14753C26.5922 7.05135 26.4231 7 26.25 6.99996H22.9217C22.4565 6.20821 21.7942 5.55035 20.9994 5.09036C20.2046 4.63037 19.3042 4.38391 18.386 4.37496C17.702 4.36589 17.0231 4.49379 16.3893 4.75114C15.7555 5.00848 15.1797 5.39006 14.6956 5.8734C14.1968 6.36235 13.8009 6.94615 13.5312 7.59045C13.2614 8.23474 13.1233 8.92649 13.125 9.62496V10.2911C8.72158 9.12949 5.11986 5.54746 5.08158 5.50918C4.96419 5.39075 4.8154 5.30833 4.65274 5.27163C4.49008 5.23492 4.32031 5.24546 4.16344 5.30201C4.00657 5.35855 3.86912 5.45874 3.76728 5.59078C3.66544 5.72282 3.60345 5.88122 3.58861 6.04731C3.1183 11.2743 4.63533 14.7722 5.99486 16.7857C6.65808 17.7812 7.46488 18.6732 8.38908 19.4326C6.71892 21.35 4.09611 22.3573 4.06877 22.3682C3.9453 22.4145 3.83388 22.488 3.74283 22.5834C3.65178 22.6788 3.58345 22.7935 3.54296 22.9189C3.50247 23.0444 3.49085 23.1774 3.50899 23.308C3.52712 23.4386 3.57453 23.5634 3.64767 23.6731C3.72861 23.7956 4.05783 24.2254 4.85955 24.6268C5.85267 25.1234 7.16189 25.375 8.75002 25.375C16.4806 25.375 22.9381 19.4228 23.5988 11.7643L26.8691 8.49403C26.9914 8.37159 27.0747 8.21562 27.1084 8.04585C27.142 7.87608 27.1246 7.70014 27.0583 7.54028ZM22.1364 10.757C21.9864 10.9074 21.8962 11.1072 21.8827 11.3192C21.4375 18.2197 15.6713 23.625 8.75002 23.625C7.59502 23.625 6.78127 23.4718 6.21033 23.2881C7.47033 22.6045 9.22471 21.4287 10.3535 19.7356C10.4196 19.6364 10.4647 19.5248 10.4862 19.4076C10.5076 19.2904 10.5049 19.17 10.4782 19.0539C10.4515 18.9377 10.4013 18.8283 10.3307 18.7322C10.2602 18.6362 10.1708 18.5555 10.068 18.4953C10.0538 18.4865 8.66142 17.6487 7.39049 15.7292C5.96533 13.5745 5.25002 10.979 5.25002 7.99418C7.00002 9.41606 10.1992 11.6232 13.8567 12.2379C13.982 12.2587 14.1104 12.252 14.2328 12.2182C14.3552 12.1844 14.4688 12.1244 14.5657 12.0423C14.6626 11.9602 14.7405 11.8579 14.7939 11.7427C14.8473 11.6275 14.875 11.502 14.875 11.375V9.62496C14.874 9.1582 14.9664 8.69596 15.1467 8.26544C15.3271 7.83492 15.5917 7.44482 15.925 7.11809C16.2444 6.79769 16.6248 6.54469 17.0438 6.3741C17.4628 6.2035 17.9117 6.11878 18.3641 6.12496C19.7488 6.14246 21.0427 6.98684 21.5841 8.22606C21.6523 8.38186 21.7645 8.51439 21.9069 8.60743C22.0493 8.70048 22.2157 8.75001 22.3858 8.74996H24.1358L22.1364 10.757Z" fill="currentColor"/></svg>